<?xml version="1.0" encoding="UTF-8" standalone="no"?>
<svg
   xmlns:dc="http://purl.org/dc/elements/1.1/"
   xmlns:cc="http://creativecommons.org/ns#"
   xmlns:rdf="http://www.w3.org/1999/02/22-rdf-syntax-ns#"
   xmlns:svg="http://www.w3.org/2000/svg"
   xmlns="http://www.w3.org/2000/svg"
   xmlns:sodipodi="http://sodipodi.sourceforge.net/DTD/sodipodi-0.dtd"
   xmlns:inkscape="http://www.inkscape.org/namespaces/inkscape"
   inkscape:version="1.0beta1 (32d4812, 2019-09-19)"
   sodipodi:docname="pluginIcon.svg"
   id="svg94"
   version="1.1"
   fill="none"
   viewBox="0 0 40 40"
   height="40"
   width="40">
  <metadata
     id="metadata100">
    <rdf:RDF>
      <cc:Work
         rdf:about="">
        <dc:format>image/svg+xml</dc:format>
        <dc:type
           rdf:resource="http://purl.org/dc/dcmitype/StillImage" />
        <dc:title></dc:title>
      </cc:Work>
    </rdf:RDF>
  </metadata>
  <defs
     id="defs98" />
  <sodipodi:namedview
     inkscape:current-layer="svg94"
     inkscape:window-maximized="0"
     inkscape:window-y="23"
     inkscape:window-x="0"
     inkscape:cy="125.91233"
     inkscape:cx="-159.33467"
     inkscape:zoom="2.8"
     showgrid="false"
     id="namedview96"
     inkscape:window-height="1039"
     inkscape:window-width="1806"
     inkscape:pageshadow="2"
     inkscape:pageopacity="0"
     guidetolerance="10"
     gridtolerance="10"
     objecttolerance="10"
     borderopacity="1"
     inkscape:document-rotation="0"
     bordercolor="#666666"
     pagecolor="#ffffff" />
  <path
     style="stroke-width:0.0750476"
     inkscape:connector-curvature="0"
     id="path74"
     fill="#FFB21D"
     d="m 33.051387,2 5.662899,4.9562579 V 7.1815434 L 33.051387,12.13777 Z" />
  <path
     style="stroke-width:0.0750476"
     inkscape:connector-curvature="0"
     id="path76"
     fill="#FFB21D"
     d="m 33.051387,14.441894 5.662899,4.956292 v 0.22524 l -5.662899,4.956293 z" />
  <path
     style="stroke-width:0.0750476"
     inkscape:connector-curvature="0"
     id="path78"
     fill="#FFB21D"
     d="m 33.051387,28.266157 5.662899,5.181534 v 0.235503 l -5.662899,5.181533 z" />
  <path
     style="stroke-width:0.0750476"
     inkscape:connector-curvature="0"
     id="path80"
     fill="#FFB21D"
     d="M 8.1509678,9.4411448 H 2.7142858 V 2.9215935 h 5.436682 c 6.0089982,0 9.2935752,4.2452032 11.7948012,7.4130875 0.09204,0.116706 0.183027,0.231893 0.272885,0.345316 2.681437,3.385017 4.630357,5.60672 8.248358,5.60672 h 4.864359 v 6.51955 h -4.864359 c -6.35182,0 -9.835381,-4.398061 -12.441517,-7.688393 l -0.05541,-0.07001 C 13.20723,11.560158 11.432965,9.4411448 8.1509678,9.4411448 Z"
     clip-rule="evenodd"
     fill-rule="evenodd" />
  <path
     style="stroke-width:0.0750476"
     inkscape:connector-curvature="0"
     id="path82"
     fill="#FFB21D"
     d="m 8.1509678,23.458295 h -5.436682 v -6.519632 h 5.436682 c 6.5812722,0 9.2935752,4.245226 11.7948012,7.413168 0.09204,0.116626 0.183027,0.231813 0.272885,0.345236 2.681437,3.385017 4.630357,5.606715 8.248358,5.606715 h 4.864359 v 6.519636 h -4.864359 c -6.295148,0 -9.835381,-4.398142 -12.441517,-7.68848 l -0.05541,-0.06993 C 13.20723,25.577222 11.432965,23.458295 8.1509678,23.458295 Z"
     clip-rule="evenodd"
     fill-rule="evenodd" />
  <path
     style="stroke-width:0.0750476"
     inkscape:connector-curvature="0"
     id="path84"
     fill="#FFB21D"
     d="m 15.658112,18.589157 c 0.113908,-0.279474 0.692088,-1.559821 0.809019,-1.843299 1.211905,1.483564 2.60557,3.07999 4.449374,4.377718 l -0.394736,0.861652 c -0.100552,0.247835 -0.473554,0.960095 -0.576,1.212016 -1.072477,-1.387843 -2.27749,-3.057562 -3.920274,-4.377713 -0.139991,-0.112545 -0.221834,-0.122637 -0.367383,-0.230374 z" />
  <path
     style="stroke-width:0.0750476"
     inkscape:connector-curvature="0"
     id="path86"
     fill="#FFB21D"
     d="m 12.075482,26.435992 c -0.160102,0.27996 -0.322173,0.548942 -0.486914,0.806307 -1.344588,2.100826 -2.4227162,2.735552 -3.4376002,2.735552 h -5.436682 v 6.519552 h 5.436682 c 3.6526852,0 6.2018652,-2.549474 7.9835132,-5.292716 -0.338134,-0.412924 -0.656789,-0.815035 -0.958712,-1.19624 l -0.05541,-0.06985 c -1.193416,-1.50663 -2.14193,-2.66642 -3.044883,-3.502605 z" />
  <path
     style="stroke-width:0.0750476"
     inkscape:connector-curvature="0"
     id="path88"
     fill="#FFB21D"
     d="M 16.803927,30.108896 C 16.534772,29.777275 16.27581,29.451023 16.025495,29.134938 l -0.05541,-0.06993 c -1.218023,-1.537632 -2.243883,-2.809164 -3.291539,-3.750436 0.880454,-1.73164 1.723641,-3.78801 2.645086,-6.056727 1.649531,1.257593 2.881969,2.850334 4.015547,4.315235 0.11742,0.151713 0.233789,0.302143 0.349454,0.450573 -0.866742,2.088969 -1.812166,4.225523 -2.884712,6.085242 z" />
  <path
     style="stroke-width:0.0750476"
     inkscape:connector-curvature="0"
     id="path90"
     fill="#FFB21D"
     d="m 21.155848,20.42813 c 0.899228,-2.19182 1.751837,-4.16841 2.662736,-5.811372 -1.207126,-0.970514 -2.320102,-2.321109 -3.59993,-3.936761 -0.08986,-0.113423 -0.180845,-0.22861 -0.272885,-0.345316 l -0.08198,-0.103813 c -0.06729,-0.08523 -0.13507,-0.171094 -0.203484,-0.2576869 -1.119305,1.8128599 -2.092993,3.9050379 -2.973657,5.9749429 1.226601,1.524657 2.658374,3.178434 4.469203,4.480006 z" />
  <path
     style="stroke-width:0.0750476"
     inkscape:connector-curvature="0"
     id="path92"
     fill="#FFB21D"
     d="m 24.670841,13.210571 c -0.07109,0.10629 -0.141751,0.214593 -0.211922,0.324893 C 23.390239,12.670127 22.348278,11.42214 21.06838,9.8064091 20.97922,9.6938681 20.888941,9.5794829 20.796692,9.4626963 L 20.668161,9.2998487 C 20.567052,9.171607 20.463904,9.0408789 20.358928,8.9083108 22.238452,6.2210047 24.846481,3.8995304 28.467012,3.8995304 h 4.864359 v 6.5195766 h -4.864359 c -1.230962,0 -2.419031,0.734053 -3.796171,2.791464 z" />
</svg>
