<?xml version="1.0" encoding="UTF-8" standalone="no"?>
<svg
   xmlns:dc="http://purl.org/dc/elements/1.1/"
   xmlns:cc="http://creativecommons.org/ns#"
   xmlns:rdf="http://www.w3.org/1999/02/22-rdf-syntax-ns#"
   xmlns:svg="http://www.w3.org/2000/svg"
   xmlns="http://www.w3.org/2000/svg"
   xmlns:sodipodi="http://sodipodi.sourceforge.net/DTD/sodipodi-0.dtd"
   xmlns:inkscape="http://www.inkscape.org/namespaces/inkscape"
   width="32"
   height="32"
   viewBox="0 0 32 32"
   fill="none"
   version="1.1"
   id="svg94"
   sodipodi:docname="dataSonnet@2x.svg"
   inkscape:version="1.0beta1 (32d4812, 2019-09-19)">
  <metadata
     id="metadata100">
    <rdf:RDF>
      <cc:Work
         rdf:about="">
        <dc:format>image/svg+xml</dc:format>
        <dc:type
           rdf:resource="http://purl.org/dc/dcmitype/StillImage" />
        <dc:title></dc:title>
      </cc:Work>
    </rdf:RDF>
  </metadata>
  <defs
     id="defs98" />
  <sodipodi:namedview
     pagecolor="#ffffff"
     bordercolor="#666666"
     inkscape:document-rotation="0"
     borderopacity="1"
     objecttolerance="10"
     gridtolerance="10"
     guidetolerance="10"
     inkscape:pageopacity="0"
     inkscape:pageshadow="2"
     inkscape:window-width="1920"
     inkscape:window-height="1089"
     id="namedview96"
     showgrid="false"
     inkscape:zoom="1.979899"
     inkscape:cx="-174.76994"
     inkscape:cy="84.99683"
     inkscape:window-x="0"
     inkscape:window-y="23"
     inkscape:window-maximized="0"
     inkscape:current-layer="svg94" />
  <path
     d="M 24.224734,4 28,7.2266668 v 0.1466673 l -3.775266,3.2266469 z"
     fill="#FFB21D"
     id="path74"
     inkscape:connector-curvature="0"
     style="stroke-width:0.0494416" />
  <path
     d="M 24.224734,12.100031 28,15.326721 v 0.146639 l -3.775266,3.226688 z"
     fill="#FFB21D"
     id="path76"
     inkscape:connector-curvature="0"
     style="stroke-width:0.0494416" />
  <path
     d="M 24.224734,21.100026 28,24.473353 v 0.15332 L 24.224734,28 Z"
     fill="#FFB21D"
     id="path78"
     inkscape:connector-curvature="0"
     style="stroke-width:0.0494416" />
  <path
     fill-rule="evenodd"
     clip-rule="evenodd"
     d="M 7.6244546,8.8443997 H 4 V 4.5999839 h 3.6244546 c 4.0059994,0 6.1957164,2.7637498 7.8632004,4.8261337 0.06136,0.075979 0.122017,0.1509691 0.181923,0.2248107 1.787625,2.2037437 3.086905,3.6501367 5.498906,3.6501367 h 3.242907 v 4.244415 h -3.242907 c -4.234546,0 -6.556921,-2.863265 -8.294345,-5.005366 l -0.03693,-0.04557 C 10.995297,10.223938 9.8124528,8.8443997 7.6244546,8.8443997 Z"
     fill="#FFB21D"
     id="path80"
     inkscape:connector-curvature="0"
     style="stroke-width:0.0494416" />
  <path
     fill-rule="evenodd"
     clip-rule="evenodd"
     d="M 7.6244546,17.969969 H 4 v -4.244468 h 3.6244546 c 4.3875154,0 6.1957164,2.763764 7.8632004,4.826185 0.06136,0.07592 0.122017,0.150917 0.181923,0.22476 1.787625,2.203742 3.086905,3.650133 5.498906,3.650133 h 3.242907 v 4.24447 h -3.242907 c -4.196766,0 -6.556921,-2.863317 -8.294345,-5.005423 L 12.837209,21.6201 C 10.995297,19.349451 9.8124528,17.969969 7.6244546,17.969969 Z"
     fill="#FFB21D"
     id="path82"
     inkscape:connector-curvature="0"
     style="stroke-width:0.0494416" />
  <path
     d="m 12.629218,14.800019 c 0.07594,-0.181945 0.461391,-1.015488 0.539345,-1.20004 0.807937,0.965843 1.737046,2.005162 2.96625,2.85002 l -0.263158,0.56096 c -0.06703,0.161349 -0.315702,0.625051 -0.384,0.789059 -0.714985,-0.903528 -1.518326,-1.990561 -2.613516,-2.850019 -0.09333,-0.07326 -0.147889,-0.07985 -0.244921,-0.14998 z"
     fill="#FFB21D"
     id="path84"
     inkscape:connector-curvature="0"
     style="stroke-width:0.0494416" />
  <path
     d="m 10.240797,19.908536 c -0.106734,0.18226 -0.214782,0.357376 -0.324609,0.524929 -0.8963918,1.367699 -1.615144,1.780922 -2.2917334,1.780922 H 4 v 4.244417 h 3.6244546 c 2.4351234,0 4.1345764,-1.659782 5.3223424,-3.44571 -0.225422,-0.268826 -0.437859,-0.530613 -0.639142,-0.778788 l -0.03693,-0.04547 c -0.795618,-0.980862 -1.427961,-1.735919 -2.029929,-2.280299 z"
     fill="#FFB21D"
     id="path86"
     inkscape:connector-curvature="0"
     style="stroke-width:0.0494416" />
  <path
     d="m 13.393093,22.299702 c -0.179436,-0.215896 -0.352077,-0.428295 -0.518954,-0.634076 l -0.03693,-0.04553 c -0.812021,-1.001045 -1.495927,-1.82885 -2.194365,-2.441644 0.58697,-1.127349 1.149093,-2.466105 1.763392,-3.943104 1.099685,0.818729 1.921311,1.855649 2.677031,2.809342 0.07829,0.09877 0.155858,0.196704 0.232969,0.293336 -0.577829,1.359979 -1.208112,2.750937 -1.923143,3.961668 z"
     fill="#FFB21D"
     id="path88"
     inkscape:connector-curvature="0"
     style="stroke-width:0.0494416" />
  <path
     d="m 16.294375,15.997244 c 0.599485,-1.426938 1.167891,-2.713755 1.775157,-3.78337 -0.80475,-0.631833 -1.546734,-1.51111 -2.399954,-2.5629457 C 15.60967,9.5770868 15.549015,9.5020966 15.487655,9.4261176 L 15.433,9.3585328 c -0.04485,-0.055487 -0.09005,-0.111387 -0.135657,-0.1677616 -0.746204,1.1802238 -1.395328,2.5422918 -1.982438,3.8898598 0.817733,0.992595 1.772249,2.069252 2.97947,2.916613 z"
     fill="#FFB21D"
     id="path90"
     inkscape:connector-curvature="0"
     style="stroke-width:0.0494416" />
  <path
     d="m 18.637703,11.298406 c -0.04739,0.06919 -0.0945,0.139704 -0.14128,0.211513 C 17.783969,10.94656 17.089328,10.134085 16.236062,9.0821974 16.176622,9.00893 16.116437,8.9344618 16.054938,8.8584305 L 15.96925,8.752412 C 15.90185,8.6689234 15.833078,8.5838151 15.763094,8.4975094 17.01611,6.7479958 18.754797,5.236649 21.168484,5.236649 h 3.242907 v 4.2444324 h -3.242907 c -0.820641,0 -1.612687,0.4778897 -2.530781,1.8173246 z"
     fill="#FFB21D"
     id="path92"
     inkscape:connector-curvature="0"
     style="stroke-width:0.0494416" />
</svg>
